<svg id="Layer_1" data-name="Layer 1" xmlns="http://www.w3.org/2000/svg" viewBox="0 0 1130.43 323.13"><defs><style>.cls-1,.cls-2,.cls-3,.cls-4{fill:#fff;}.cls-2{opacity:0.54;}.cls-2,.cls-3,.cls-4{isolation:isolate;}.cls-3{opacity:0.33;}.cls-4{opacity:0.7;}</style></defs><title>logo-full-white</title><path class="cls-1" d="M458.16,189.54c-39.43,0-68.86-31.33-68.86-72.92,0-19.71,6.48-37.81,18.36-51.31,12.42-14,30-21.6,49.15-21.6,38.62,0,66.44,30.51,66.44,72.91a8.71,8.71,0,0,1-8.65,8.64H406.85c3.78,27.28,24.58,47,51.31,47,18.09,0,34-8.64,43.21-24.3a8.73,8.73,0,0,1,14.85,9.18C503.53,177.65,482.47,189.54,458.16,189.54ZM406.85,108h98.57c-3.24-28.09-22.14-47.26-48.61-47.26S410.36,80.16,406.85,108Z" transform="translate(-18.54 -11.57)"/><path class="cls-1" d="M658.82,52.08V180.9a8.65,8.65,0,0,1-17.29,0v-9.72a58.84,58.84,0,0,1-42.93,18.36,55.37,55.37,0,0,1-42.13-18.64c-10-11.34-15.66-27-15.66-43.75V52.08a8.64,8.64,0,1,1,17.28,0h0v75.07c0,26.2,17,45.1,40.51,45.1,24,0,42.94-19.71,42.94-45.1V52.08a8.65,8.65,0,0,1,17.29,0Z" transform="translate(-18.54 -11.57)"/><path class="cls-1" d="M794.92,105.81v75.08a8.51,8.51,0,0,1-17,.83c0-.28,0-.55,0-.83V105.81c0-25.93-17-45.1-40.51-45.1-24.3,0-43.21,20-43.21,45.1v75.08a8.51,8.51,0,0,1-17,.83c0-.28,0-.55,0-.83V52.08a8.51,8.51,0,0,1,17,0v9.73a59.77,59.77,0,0,1,43.21-18.09c16.48,0,31.6,6.48,42.13,18.63C789.52,73.68,794.92,89.08,794.92,105.81Z" transform="translate(-18.54 -11.57)"/><path class="cls-1" d="M884,189.54A72.92,72.92,0,1,1,957,116.62,72.92,72.92,0,0,1,884,189.54Zm0-128.82a55.77,55.77,0,1,0,55.63,55.91h0A55.79,55.79,0,0,0,884,60.72Z" transform="translate(-18.54 -11.57)"/><path class="cls-1" d="M984,11.57a9.34,9.34,0,0,1,9.46,9.18,9.17,9.17,0,0,1-9.15,9.19H984a9.34,9.34,0,0,1-9.45-9.18A9.53,9.53,0,0,1,984,11.57Zm0,178a8.7,8.7,0,0,1-8.64-8.64V52.08A8.66,8.66,0,0,1,984,43.71,8.48,8.48,0,0,1,992.61,52V180.9a8.53,8.53,0,0,1-8.42,8.64H984Z" transform="translate(-18.54 -11.57)"/><path class="cls-1" d="M1149,52.08V180.9a8.64,8.64,0,0,1-17.28,0V165.81c-12.43,14.86-30.79,23.77-51.85,23.77-39.16,0-68.87-31.33-68.87-72.92s29.71-72.91,68.87-72.91c21.06,0,39.42,8.91,51.85,23.49V52.08a8.64,8.64,0,0,1,17.28,0Zm-17.28,64.54c0-31.86-22.15-55.9-51.85-55.9-29.44,0-51.58,24-51.58,55.9,0,31.6,22.14,55.63,51.58,55.63C1109.54,172.25,1131.69,148.22,1131.69,116.62Z" transform="translate(-18.54 -11.57)"/><path class="cls-1" d="M525.65,325.58c-13.63,0-21.71-7.57-24.74-14.45a1.73,1.73,0,0,1,.69-2.34l.15-.07a1.53,1.53,0,0,1,2.08.6,1.19,1.19,0,0,1,.11.26c2.69,6,9.76,12.38,21.71,12.38C540.79,322,549,311.3,549,301.15c0-15.14-11.44-18.06-23.72-21.33-12.12-3.27-24.57-6.54-24.57-22.36,0-11,8.75-22.71,24.91-22.71,12.45,0,20,6.88,22.88,13.42a2,2,0,0,1-.84,2.41,1.94,1.94,0,0,1-2.36-.86c-2.35-5.51-8.75-11.36-19.68-11.36-14,0-21.54,9.81-21.54,19.1,0,13.07,10.26,15.82,22,18.92,12.45,3.27,26.25,6.88,26.25,24.77C552.4,313,543,325.58,525.65,325.58Z" transform="translate(-18.54 -11.57)"/><path class="cls-1" d="M606.75,318.69a18.47,18.47,0,0,1-14.14,6.89c-10.26,0-18.68-8.78-18.68-19.61V238.34H565a1.62,1.62,0,0,1-1.69-1.53v-.19a1.77,1.77,0,0,1,1.63-1.89h9V212.22a1.88,1.88,0,0,1,1.69-1.9,1.75,1.75,0,0,1,1.69,1.81.28.28,0,0,1,0,.09v22.53h23.56a1.75,1.75,0,0,1,1.65,1.85v0a1.6,1.6,0,0,1-1.49,1.72H577.3V306c0,8.77,6.9,16,15.31,16a15.07,15.07,0,0,0,11.61-5.5,1.65,1.65,0,0,1,2.3-.4l.06.05a1.75,1.75,0,0,1,.26,2.47Z" transform="translate(-18.54 -11.57)"/><path class="cls-1" d="M690,236.64v87.22a1.69,1.69,0,0,1-3.37.26V304.07c-5.55,12.9-17.67,21.51-31.8,21.51-19.35,0-33.32-16-33.32-38.19V236.64a1.7,1.7,0,1,1,3.37,0v50.75c0,20.12,12.62,34.57,30,34.57,17.84,0,31.8-15.13,31.8-34.57V236.64a1.7,1.7,0,1,1,3.37,0Z" transform="translate(-18.54 -11.57)"/><path class="cls-1" d="M787.5,206.19V323.86a1.69,1.69,0,0,1-1.68,1.72h0a1.84,1.84,0,0,1-1.68-1.72V298.91c-6.23,16-20.19,26.67-37.36,26.67-23.22,0-40.72-19.44-40.72-45.42,0-25.8,17.5-45.41,40.72-45.41,17.17,0,31.13,10.67,37.36,26.66V206.19a1.84,1.84,0,0,1,1.68-1.72,1.69,1.69,0,0,1,1.68,1.72Zm-3.36,74c0-23.74-16-41.8-37.36-41.8-21.2,0-37.19,18.06-37.19,41.8,0,23.91,16,41.8,37.19,41.8s37.32-17.92,37.32-41.83Z" transform="translate(-18.54 -11.57)"/><path class="cls-1" d="M811,219.44a3.26,3.26,0,0,1-3.26,3.27h-.11a3.27,3.27,0,0,1,0-6.54h0a3.26,3.26,0,0,1,3.37,3.17Zm-1.86,17.2v87.22a1.69,1.69,0,0,1-1.68,1.72h0a1.84,1.84,0,0,1-1.68-1.72V236.64a1.88,1.88,0,0,1,1.68-1.89,1.75,1.75,0,0,1,1.69,1.81.22.22,0,0,1,0,.08Z" transform="translate(-18.54 -11.57)"/><path class="cls-1" d="M871.25,325.58c-23.89,0-43.41-20.3-43.41-45.42,0-24.94,19.52-45.41,43.41-45.41s43.25,20.47,43.25,45.41C914.5,305.28,895.15,325.58,871.25,325.58Zm0-87.22c-22,0-39.88,18.75-39.88,41.8S849.21,322,871.25,322c21.88,0,39.88-18.75,39.88-41.8s-18-41.82-39.88-41.82Z" transform="translate(-18.54 -11.57)"/><path class="cls-1" d="M955.38,325.58c-13.63,0-21.7-7.57-24.73-14.45a1.73,1.73,0,0,1,.69-2.34l.15-.07a1.53,1.53,0,0,1,2.08.6,1.19,1.19,0,0,1,.11.26c2.69,6,9.76,12.38,21.7,12.38,15.15,0,23.39-10.66,23.39-20.81,0-15.14-11.44-18.06-23.72-21.33-12.12-3.27-24.57-6.54-24.57-22.36,0-11,8.75-22.71,24.9-22.71,12.45,0,20,6.88,22.89,13.42a2,2,0,0,1-.84,2.41,1.92,1.92,0,0,1-2.36-.86c-2.36-5.51-8.75-11.36-19.69-11.36-14,0-21.54,9.81-21.54,19.1,0,13.07,10.27,15.82,22,18.92,12.45,3.27,26.25,6.88,26.25,24.77C982.14,313,972.71,325.58,955.38,325.58Z" transform="translate(-18.54 -11.57)"/><path class="cls-2" d="M883.9,60.45a56,56,0,1,0,56,56A56,56,0,0,0,883.9,60.45Zm.82,100a43.68,43.68,0,1,1,43.68-43.68A43.68,43.68,0,0,1,884.72,160.45Z" transform="translate(-18.54 -11.57)"/><path class="cls-3" d="M884.72,73.11a43.66,43.66,0,1,0,43.66,43.66A43.65,43.65,0,0,0,884.72,73.11Zm.64,77.9a34,34,0,1,1,34-34A34,34,0,0,1,885.36,151Z" transform="translate(-18.54 -11.57)"/><path class="cls-1" d="M293.78,114H85.08a3.47,3.47,0,0,1-3.48-3.48v-1.16a65,65,0,0,1,65-65h208.7a3.27,3.27,0,0,1,3.29,3.29V49A65,65,0,0,1,293.78,114Z" transform="translate(-18.54 -11.57)"/><path class="cls-1" d="M212.74,222.71H57.61a3.46,3.46,0,0,1-3.48-3.48v-1.16a65,65,0,0,1,65-65H274.25a3.26,3.26,0,0,1,3.28,3.29v1.35A64.71,64.71,0,0,1,212.74,222.71Z" transform="translate(-18.54 -11.57)"/><path class="cls-1" d="M145,334.71H22a3.47,3.47,0,0,1-3.48-3.49v-1.16a65,65,0,0,1,65-65h123a3.27,3.27,0,0,1,3.29,3.29v1.36A64.6,64.6,0,0,1,145,334.71Z" transform="translate(-18.54 -11.57)"/><path class="cls-4" d="M275.41,154.82H153.94l-70.6-41.39a.73.73,0,0,1,.39-1.35H205.58l70.21,41.2A.82.82,0,0,1,275.41,154.82Z" transform="translate(-18.54 -11.57)"/><path class="cls-1" d="M260.32,334.71H220.67a2.36,2.36,0,0,1-2.32-2.33V313a48,48,0,0,1,48-48H306a2.35,2.35,0,0,1,2.32,2.32v19.35A48,48,0,0,1,260.32,334.71Z" transform="translate(-18.54 -11.57)"/></svg>