<svg xmlns="http://www.w3.org/2000/svg" viewBox="0 0 340.04 290.33"><defs><style>.cls-1,.cls-2{fill:#fff;}.cls-2{opacity:0.7;isolation:isolate;}</style></defs><title>Asset 4</title><g id="Layer_2" data-name="Layer 2"><g id="Layer_1-2" data-name="Layer 1"><path class="cls-1" d="M275.24,69.63H66.54a3.46,3.46,0,0,1-3.48-3.48V65a65,65,0,0,1,65-65h208.7A3.27,3.27,0,0,1,340,3.29V4.64A65,65,0,0,1,275.24,69.63Z"/><path class="cls-1" d="M194.2,178.34H39.07a3.47,3.47,0,0,1-3.48-3.49v-1.16a65,65,0,0,1,65-65H255.7A3.26,3.26,0,0,1,259,112v1.36A64.71,64.71,0,0,1,194.2,178.34Z"/><path class="cls-1" d="M126.5,290.33H3.48A3.47,3.47,0,0,1,0,286.85v-1.17a65,65,0,0,1,65-65H188a3.26,3.26,0,0,1,3.28,3.29v1.36A64.59,64.59,0,0,1,126.5,290.33Z"/><path class="cls-2" d="M256.86,110.44H135.4L64.8,69.05a.73.73,0,0,1,.38-1.35H187l70.21,41.2A.82.82,0,0,1,256.86,110.44Z"/><path class="cls-1" d="M241.78,290.33H202.13a2.35,2.35,0,0,1-2.32-2.32V268.66a48,48,0,0,1,48-48h39.66a2.36,2.36,0,0,1,2.32,2.33v19.34A48,48,0,0,1,241.78,290.33Z"/></g></g></svg>