<svg xmlns="http://www.w3.org/2000/svg" xmlns:xlink="http://www.w3.org/1999/xlink" viewBox="0 0 340.04 290.33"><defs><style>.cls-1{opacity:0.7;isolation:isolate;fill:url(#linear-gradient);}.cls-2{fill:url(#linear-gradient-2);}.cls-3{fill:url(#linear-gradient-3);}.cls-4{fill:url(#radial-gradient);}.cls-5{fill:url(#linear-gradient-4);}</style><linearGradient id="linear-gradient" x1="64.46" y1="89.07" x2="257.67" y2="89.07" gradientUnits="userSpaceOnUse"><stop offset="0" stop-color="#d4145a"/><stop offset="0.71" stop-color="#d4145a"/><stop offset="0.8" stop-color="#c80f5b"/><stop offset="0.96" stop-color="#a7035d"/><stop offset="1" stop-color="#9e005d"/></linearGradient><linearGradient id="linear-gradient-2" x1="63.06" y1="34.82" x2="340.04" y2="34.82" gradientUnits="userSpaceOnUse"><stop offset="0" stop-color="#d4145a"/><stop offset="0.29" stop-color="#d4145a"/><stop offset="0.51" stop-color="#c80f5b"/><stop offset="0.91" stop-color="#a7035d"/><stop offset="1" stop-color="#9e005d"/></linearGradient><linearGradient id="linear-gradient-3" x1="35.59" y1="143.52" x2="258.99" y2="143.52" gradientUnits="userSpaceOnUse"><stop offset="0" stop-color="#ed1e79"/><stop offset="0.16" stop-color="#e81c73"/><stop offset="0.37" stop-color="#da1762"/><stop offset="0.45" stop-color="#d4145a"/><stop offset="1" stop-color="#d4145a"/></linearGradient><radialGradient id="radial-gradient" cx="95.65" cy="255.51" r="71.97" gradientUnits="userSpaceOnUse"><stop offset="0" stop-color="#9e005d"/><stop offset="0.25" stop-color="#a4025d"/><stop offset="0.58" stop-color="#b5095c"/><stop offset="0.97" stop-color="#d1135a"/><stop offset="1" stop-color="#d4145a"/></radialGradient><linearGradient id="linear-gradient-4" x1="199.81" y1="255.51" x2="289.75" y2="255.51" xlink:href="#radial-gradient"/></defs><title>Asset 1</title><g id="Layer_2" data-name="Layer 2"><g id="Layer_1-2" data-name="Layer 1"><path class="cls-1" d="M256.86,110.44H135.4L64.8,69.05a.73.73,0,0,1,.38-1.35H187l70.21,41.2A.82.82,0,0,1,256.86,110.44Z"/><path class="cls-2" d="M275.24,69.63H66.54a3.46,3.46,0,0,1-3.48-3.48V65a65,65,0,0,1,65-65h208.7A3.27,3.27,0,0,1,340,3.29V4.64A65,65,0,0,1,275.24,69.63Z"/><path class="cls-3" d="M194.2,178.34H39.07a3.47,3.47,0,0,1-3.48-3.49v-1.16a65,65,0,0,1,65-65H255.7A3.26,3.26,0,0,1,259,112v1.36A64.71,64.71,0,0,1,194.2,178.34Z"/><path class="cls-4" d="M126.5,290.33H3.48A3.47,3.47,0,0,1,0,286.85v-1.17a65,65,0,0,1,65-65H188a3.26,3.26,0,0,1,3.28,3.29v1.36A64.59,64.59,0,0,1,126.5,290.33Z"/><path class="cls-5" d="M241.78,290.33H202.13a2.35,2.35,0,0,1-2.32-2.32V268.66a48,48,0,0,1,48-48h39.66a2.36,2.36,0,0,1,2.32,2.33v19.34A48,48,0,0,1,241.78,290.33Z"/></g></g></svg>