<svg id="Layer_1" data-name="Layer 1" xmlns="http://www.w3.org/2000/svg" xmlns:xlink="http://www.w3.org/1999/xlink" viewBox="0 0 786.57 326.7"><defs><style>.cls-1{fill:url(#linear-gradient);}.cls-2{fill:url(#linear-gradient-2);}.cls-3{fill:url(#linear-gradient-3);}.cls-4{fill:url(#linear-gradient-4);}.cls-5{opacity:0.54;fill:url(#linear-gradient-5);}.cls-5,.cls-6{isolation:isolate;}.cls-6{opacity:0.33;fill:url(#linear-gradient-6);}.cls-7{fill:url(#linear-gradient-7);}.cls-8{fill:url(#linear-gradient-8);}.cls-9{fill:url(#linear-gradient-9);}.cls-10{fill:url(#linear-gradient-10);}.cls-11{fill:url(#linear-gradient-11);}.cls-12{fill:url(#linear-gradient-12);}.cls-13{fill:url(#linear-gradient-13);}.cls-14{fill:url(#linear-gradient-14);}.cls-15{fill:url(#linear-gradient-15);}</style><linearGradient id="linear-gradient" x1="2.12" y1="-216.74" x2="140.82" y2="-216.74" gradientTransform="matrix(1, 0, 0, -1, 0.03, -105.11)" gradientUnits="userSpaceOnUse"><stop offset="0" stop-color="#ee0979"/><stop offset="1" stop-color="#ff6a00"/></linearGradient><linearGradient id="linear-gradient-2" x1="158.89" y1="-217.1" x2="281.19" y2="-217.1" xlink:href="#linear-gradient"/><linearGradient id="linear-gradient-3" x1="300.22" y1="-216.58" x2="422.12" y2="-216.58" xlink:href="#linear-gradient"/><linearGradient id="linear-gradient-4" x1="438.89" y1="-216.72" x2="589.89" y2="-216.72" xlink:href="#linear-gradient"/><linearGradient id="linear-gradient-5" x1="456.44" y1="-216.72" x2="572.04" y2="-216.72" xlink:href="#linear-gradient"/><linearGradient id="linear-gradient-6" x1="470.09" y1="-216.57" x2="558.29" y2="-216.57" xlink:href="#linear-gradient"/><linearGradient id="linear-gradient-7" x1="608.03" y1="-200.07" x2="627.6" y2="-200.07" xlink:href="#linear-gradient"/><linearGradient id="linear-gradient-8" x1="645.89" y1="-216.85" x2="788.69" y2="-216.85" xlink:href="#linear-gradient"/><linearGradient id="linear-gradient-9" x1="15.04" y1="-387.57" x2="68.59" y2="-387.57" xlink:href="#linear-gradient"/><linearGradient id="linear-gradient-10" x1="79.87" y1="-374.82" x2="125.31" y2="-374.82" xlink:href="#linear-gradient"/><linearGradient id="linear-gradient-11" x1="140.14" y1="-387.61" x2="211.05" y2="-387.61" xlink:href="#linear-gradient"/><linearGradient id="linear-gradient-12" x1="227.59" y1="-371.92" x2="311.99" y2="-371.92" xlink:href="#linear-gradient"/><linearGradient id="linear-gradient-13" x1="329.36" y1="-377.92" x2="336.33" y2="-377.92" xlink:href="#linear-gradient"/><linearGradient id="linear-gradient-14" x1="353.69" y1="-387.62" x2="443.49" y2="-387.62" xlink:href="#linear-gradient"/><linearGradient id="linear-gradient-15" x1="459.94" y1="-387.57" x2="513.48" y2="-387.57" xlink:href="#linear-gradient"/></defs><title>logo-text</title><path class="cls-1" d="M73.42,187.11c-40.8,0-71.27-32.4-71.27-75.47,0-20.4,6.7-39.2,19-53.1,12.9-14.5,31-22.4,50.9-22.4,40,0,68.8,31.6,68.8,75.5a9,9,0,0,1-9,9H20.32c3.9,28.2,25.5,48.7,53.1,48.7,18.7,0,35.2-8.9,44.7-25.2a9,9,0,0,1,15.3,9.5h0C120.42,174.81,98.62,187.11,73.42,187.11Zm-53.1-84.47h102.1c-3.3-29.1-22.9-48.9-50.3-48.9S23.92,73.81,20.32,102.64Z" transform="translate(-2.15 -2.81)"/><path class="cls-2" d="M281.22,44.81v133.4a9,9,0,1,1-18,0h0v-10.1a61,61,0,0,1-44.5,19,57.36,57.36,0,0,1-43.6-19.3c-10.3-11.7-16.2-28-16.2-45.3V44.81a9,9,0,0,1,17.9,0v77.83c0,27.1,17.6,46.7,41.9,46.7,24.9,0,44.5-20.4,44.5-46.7V44.81a9.06,9.06,0,0,1,18,0Z" transform="translate(-2.15 -2.81)"/><path class="cls-3" d="M422.15,100.41v77.7a8.81,8.81,0,0,1-17.6.6v-78.3c0-26.8-17.6-46.7-42-46.7-25.2,0-44.7,20.7-44.7,46.7v77.7a8.8,8.8,0,0,1-17.6,0h0V44.81a8.8,8.8,0,0,1,17.6,0h0v10a61.65,61.65,0,0,1,44.7-18.7c17.1,0,32.7,6.7,43.6,19.3C416.52,67.11,422.15,83.11,422.15,100.41Z" transform="translate(-2.15 -2.81)"/><path class="cls-4" d="M514.42,187.11a75.5,75.5,0,1,1,75.5-75.5h0A75.57,75.57,0,0,1,514.42,187.11Zm0-133.4a57.75,57.75,0,1,0,57.6,57.9h0A57.81,57.81,0,0,0,514.42,53.71Z" transform="translate(-2.15 -2.81)"/><path class="cls-5" d="M514.27,170c-31.9,0-57.8-26.2-57.8-58.4s25.9-58.4,57.8-58.4,57.8,26.2,57.8,58.4S546.17,170,514.27,170Zm0-103.2c-24.4,0-44.1,20.1-44.1,44.8a44.05,44.05,0,0,0,88.1.1h0C558.37,86.91,538.67,66.81,514.27,66.81Z" transform="translate(-2.15 -2.81)"/><path class="cls-6" d="M514.22,156.16c-24.3,0-44.1-20-44.1-44.7s19.8-44.7,44.1-44.7,44.1,20,44.1,44.7S538.52,156.16,514.22,156.16Zm0-78.8c-18.6,0-33.6,15.4-33.6,34.2a33.61,33.61,0,0,0,67.2,1.2v-1.2C547.82,92.66,532.82,77.36,514.22,77.36Z" transform="translate(-2.15 -2.81)"/><path class="cls-7" d="M617.82,2.81a9.7,9.7,0,0,1,9.8,9.5,9.51,9.51,0,0,1-9.5,9.5h-.3a9.68,9.68,0,0,1-9.8-9.5A9.82,9.82,0,0,1,617.82,2.81Zm0,184.3a9,9,0,0,1-8.91-9V44.81a9.07,9.07,0,0,1,8.9-8.7,8.81,8.81,0,0,1,9,8.5v133.5a8.85,8.85,0,0,1-8.68,9h-.32Z" transform="translate(-2.15 -2.81)"/><path class="cls-8" d="M788.72,44.81v133.4a8.91,8.91,0,0,1-17.8.6V162.64c-12.9,15.4-31.9,24.6-53.7,24.6-40.5,0-71.3-32.4-71.3-75.5s30.8-75.5,71.3-75.5c21.8,0,40.8,9.2,53.7,24.3V44.81a8.91,8.91,0,0,1,17.8,0Zm-17.9,66.83c0-33-22.9-57.9-53.7-57.9-30.5,0-53.4,24.9-53.4,57.9,0,32.7,22.9,57.6,53.4,57.6C747.92,169.21,770.82,144.31,770.82,111.64Z" transform="translate(-2.15 -2.81)"/><path class="cls-9" d="M40.92,329.51c-14.1,0-22.5-7.8-25.6-15a1.7,1.7,0,0,1,.57-2.34l.13-.06c.1,0,.1-.1.2-.1a1.58,1.58,0,0,1,2.1.6c0,.1.1.2.1.3,2.8,6.2,10.1,12.8,22.5,12.8,15.7,0,24.2-11,24.2-21.5,0-15.7-11.8-18.7-24.6-22.1-12.5-3.4-25.4-6.8-25.4-23.2,0-11.4,9.1-23.5,25.8-23.5,12.9,0,20.7,7.1,23.7,13.9a2.11,2.11,0,0,1-.9,2.5,2,2,0,0,1-2.4-.9c-2.4-5.7-9.1-11.8-20.4-11.8-14.5,0-22.3,10.2-22.3,19.8,0,13.5,10.6,16.4,22.8,19.6,12.9,3.4,27.2,7.1,27.2,25.7C68.62,316.51,58.82,329.51,40.92,329.51Z" transform="translate(-2.15 -2.81)"/><path class="cls-10" d="M124.82,322.31a19.29,19.29,0,0,1-14.6,7.1c-10.6,0-19.3-9.1-19.3-20.3v-70h-9.2a1.82,1.82,0,0,1-1.8-1.6v-.2a1.8,1.8,0,0,1,1.59-2h9.31V212a2,2,0,0,1,1.7-2,1.88,1.88,0,0,1,1.8,1.9v23.4h24.4a1.73,1.73,0,0,1,1.7,1.77v.23a1.69,1.69,0,0,1-1.56,1.8H94.22v70c0,9.1,7.1,16.6,15.8,16.6a15.72,15.72,0,0,0,12-5.7,1.65,1.65,0,0,1,2.28-.49l.12.09a.1.1,0,0,1,.1.1h0a1.72,1.72,0,0,1,.46,2.38,1.77,1.77,0,0,1-.16.22Z" transform="translate(-2.15 -2.81)"/><path class="cls-11" d="M211.15,237.41v90.3a1.7,1.7,0,0,1-3.4,0h0v-20.5c-5.8,13.4-18.3,22.3-32.9,22.3-20,0-34.5-16.6-34.5-39.5v-52.5a1.76,1.76,0,0,1,3.48-.53c0,.08,0,.15,0,.23v52.9c0,20.8,13.1,35.8,31,35.8,18.5,0,32.9-15.7,32.9-35.8V237.64a1.75,1.75,0,0,1,1.72-1.8,1.77,1.77,0,0,1,1.78,1.5c-.1-.2-.1,0-.1.1Z" transform="translate(-2.15 -2.81)"/><path class="cls-12" d="M312,205.91v121.8a1.78,1.78,0,0,1-1.7,1.8,2,2,0,0,1-1.8-1.8v-25.8c-6.4,16.6-20.9,27.6-38.7,27.6-24,0-42.2-20.1-42.2-47,0-26.7,18.1-47,42.2-47,17.8,0,32.2,11,38.7,27.6v-57.2a2,2,0,0,1,1.8-1.8A1.78,1.78,0,0,1,312,205.91Zm-3.5,76.5c0-24.6-16.5-43.3-38.7-43.3-22,0-38.5,18.7-38.5,43.3,0,24.8,16.5,43.3,38.5,43.3s38.7-18.5,38.7-43.3Z" transform="translate(-2.15 -2.81)"/><path class="cls-13" d="M336.32,219.51a3.38,3.38,0,0,1-3.34,3.4h-.16a3.41,3.41,0,0,1-.4-6.8h.4a3.36,3.36,0,0,1,3.49,3.23v.17Zm-1.8,17.9v90.3a1.78,1.78,0,0,1-1.7,1.8,1.83,1.83,0,0,1-1.7-1.8v-90.3a2,2,0,0,1,1.7-2,1.73,1.73,0,0,1,1.7,1.77v.23Z" transform="translate(-2.15 -2.81)"/><path class="cls-14" d="M398.72,329.51c-24.7,0-45-21-45-47,0-25.8,20.2-47,45-47s44.8,21.2,44.8,47S423.52,329.51,398.72,329.51Zm0-90.3c-22.8,0-41.3,19.4-41.3,43.3s18.5,43.3,41.3,43.3,41.3-19.4,41.3-43.3-18.6-43.3-41.3-43.3Z" transform="translate(-2.15 -2.81)"/><path class="cls-15" d="M485.82,329.51c-14.1,0-22.5-7.8-25.6-15a1.7,1.7,0,0,1,.57-2.34l.13-.06c.1,0,.1-.1.2-.1a1.72,1.72,0,0,1,2.2.6c0,.1.1.2.1.3,2.8,6.2,10.1,12.8,22.5,12.8,15.7,0,24.2-11,24.2-21.5,0-15.7-11.8-18.7-24.6-22.1-12.5-3.4-25.4-6.8-25.4-23.2,0-11.4,9.1-23.5,25.8-23.5,12.9,0,20.7,7.1,23.7,13.9a2.11,2.11,0,0,1-.9,2.5,1.93,1.93,0,0,1-2.4-.9c-2.4-5.7-9.1-11.8-20.4-11.8-14.5,0-22.3,10.2-22.3,19.8,0,13.5,10.6,16.4,22.8,19.6,12.9,3.4,27.2,7.1,27.2,25.7C513.52,316.51,503.82,329.51,485.82,329.51Z" transform="translate(-2.15 -2.81)"/></svg>