<svg id="Layer_1" data-name="Layer 1" xmlns="http://www.w3.org/2000/svg" xmlns:xlink="http://www.w3.org/1999/xlink" viewBox="0 0 1180.36 326.7"><defs><style>.cls-1{fill:url(#linear-gradient);}.cls-2{fill:url(#linear-gradient-2);}.cls-3{fill:url(#linear-gradient-3);}.cls-4{fill:url(#linear-gradient-4);}.cls-5{opacity:0.54;fill:url(#linear-gradient-5);}.cls-19,.cls-5,.cls-6{isolation:isolate;}.cls-6{opacity:0.33;fill:url(#linear-gradient-6);}.cls-7{fill:url(#linear-gradient-7);}.cls-8{fill:url(#linear-gradient-8);}.cls-9{fill:url(#linear-gradient-9);}.cls-10{fill:url(#linear-gradient-10);}.cls-11{fill:url(#linear-gradient-11);}.cls-12{fill:url(#linear-gradient-12);}.cls-13{fill:url(#linear-gradient-13);}.cls-14{fill:url(#linear-gradient-14);}.cls-15{fill:url(#linear-gradient-15);}.cls-16{fill:url(#linear-gradient-16);}.cls-17{fill:url(#linear-gradient-17);}.cls-18{fill:url(#linear-gradient-18);}.cls-19{opacity:0.7;fill:url(#linear-gradient-19);}.cls-20{fill:url(#linear-gradient-20);}</style><linearGradient id="linear-gradient" x1="399.75" y1="-221.7" x2="538.45" y2="-221.7" gradientTransform="matrix(1, 0, 0, -1, -6.01, -112.9)" gradientUnits="userSpaceOnUse"><stop offset="0" stop-color="#ee0979"/><stop offset="1" stop-color="#ff6a00"/></linearGradient><linearGradient id="linear-gradient-2" x1="556.55" y1="-222.08" x2="678.85" y2="-222.08" xlink:href="#linear-gradient"/><linearGradient id="linear-gradient-3" x1="697.85" y1="-221.86" x2="819.77" y2="-221.86" xlink:href="#linear-gradient"/><linearGradient id="linear-gradient-4" x1="836.55" y1="-221.7" x2="987.55" y2="-221.7" xlink:href="#linear-gradient"/><linearGradient id="linear-gradient-5" x1="854.1" y1="-221.55" x2="969.7" y2="-221.55" xlink:href="#linear-gradient"/><linearGradient id="linear-gradient-6" x1="867.75" y1="-221.2" x2="955.95" y2="-221.2" xlink:href="#linear-gradient"/><linearGradient id="linear-gradient-7" x1="1005.7" y1="-205.05" x2="1025.27" y2="-205.05" xlink:href="#linear-gradient"/><linearGradient id="linear-gradient-8" x1="1043.55" y1="-222.05" x2="1186.37" y2="-222.05" xlink:href="#linear-gradient"/><linearGradient id="linear-gradient-9" x1="412.71" y1="-392.51" x2="466.25" y2="-392.51" xlink:href="#linear-gradient"/><linearGradient id="linear-gradient-10" x1="477.54" y1="-379.8" x2="522.98" y2="-379.8" xlink:href="#linear-gradient"/><linearGradient id="linear-gradient-11" x1="537.81" y1="-392.62" x2="608.71" y2="-392.62" xlink:href="#linear-gradient"/><linearGradient id="linear-gradient-12" x1="625.3" y1="-376.86" x2="709.65" y2="-376.86" xlink:href="#linear-gradient"/><linearGradient id="linear-gradient-13" x1="727.03" y1="-382.86" x2="734" y2="-382.86" xlink:href="#linear-gradient"/><linearGradient id="linear-gradient-14" x1="751.35" y1="-392.56" x2="841.15" y2="-392.56" xlink:href="#linear-gradient"/><linearGradient id="linear-gradient-15" x1="857.61" y1="-392.51" x2="911.15" y2="-392.51" xlink:href="#linear-gradient"/><linearGradient id="linear-gradient-16" x1="66" y1="265.3" x2="352" y2="265.3" gradientTransform="matrix(1, 0, 0, -1, 0, 328)" xlink:href="#linear-gradient"/><linearGradient id="linear-gradient-17" x1="36" y1="153.31" x2="268" y2="153.31" gradientTransform="matrix(1, 0, 0, -1, 0, 328)" gradientUnits="userSpaceOnUse"><stop offset="0" stop-color="#ee0979"/><stop offset="1" stop-color="#f9492a"/></linearGradient><linearGradient id="linear-gradient-18" y1="37.31" x2="198" y2="37.31" gradientTransform="matrix(1, 0, 0, -1, 0, 328)" gradientUnits="userSpaceOnUse"><stop offset="0" stop-color="#ee0979"/><stop offset="1" stop-color="#fb6237" stop-opacity="0.9"/></linearGradient><linearGradient id="linear-gradient-19" x1="73.09" y1="207.01" x2="272.79" y2="207.01" gradientTransform="matrix(1, 0, 0, -1, -6.01, 325.66)" xlink:href="#linear-gradient"/><linearGradient id="linear-gradient-20" x1="206" y1="37.31" x2="300" y2="37.31" gradientTransform="matrix(1, 0, 0, -1, 0, 328)" gradientUnits="userSpaceOnUse"><stop offset="0" stop-color="#ee0979"/><stop offset="1" stop-color="#fc6730" stop-opacity="0.9"/></linearGradient></defs><title>logo-full</title><path class="cls-1" d="M465,184.3c-40.8,0-71.3-32.4-71.3-75.5,0-20.4,6.7-39.2,19-53.1,12.9-14.5,31-22.4,50.9-22.4,40,0,68.8,31.6,68.8,75.5a9,9,0,0,1-9,9H412c3.9,28.2,25.5,48.7,53.1,48.7,18.7,0,35.2-8.9,44.7-25.2a9,9,0,1,1,15.3,9.5h0C512,172,490.24,184.3,465,184.3ZM412,99.8h102.1c-3.3-29.1-22.9-48.9-50.3-48.9S415.54,71,412,99.8Z" transform="translate(0 0)"/><path class="cls-2" d="M672.84,42V175.4a9,9,0,0,1-18,0h0V165.3a61,61,0,0,1-44.5,19,57.32,57.32,0,0,1-43.6-19.3c-10.3-11.7-16.2-28-16.2-45.3V42a9,9,0,0,1,17.9,0v77.8c0,27.1,17.6,46.7,41.9,46.7,24.9,0,44.5-20.4,44.5-46.7V42a9.06,9.06,0,0,1,18,0Z" transform="translate(0 0)"/><path class="cls-3" d="M813.74,97.6v77.7a8.81,8.81,0,0,1-17.58,1.19c0-.2,0-.39,0-.59V97.6c0-26.8-17.6-46.7-42-46.7-25.2,0-44.7,20.7-44.7,46.7v77.7a8.8,8.8,0,0,1-17.6,0h0V42a8.8,8.8,0,0,1,17.6,0V52a61.65,61.65,0,0,1,44.7-18.7c17.1,0,32.7,6.7,43.6,19.3C808.14,64.3,813.74,80.3,813.74,97.6Z" transform="translate(0 0)"/><path class="cls-4" d="M906,184.3a75.5,75.5,0,1,1,75.5-75.5h0A75.56,75.56,0,0,1,906,184.3Zm0-133.4a57.75,57.75,0,1,0,57.6,57.9h0A57.81,57.81,0,0,0,906,50.9Z" transform="translate(0 0)"/><path class="cls-5" d="M905.89,167.05c-31.9,0-57.8-26.2-57.8-58.4s25.9-58.4,57.8-58.4,57.8,26.2,57.8,58.4S937.79,167.05,905.89,167.05Zm0-103.2c-24.4,0-44.1,20.1-44.1,44.8a44.05,44.05,0,0,0,88.1.1h0C950,84,930.29,63.85,905.89,63.85Z" transform="translate(0 0)"/><path class="cls-6" d="M905.84,153c-24.3,0-44.1-20-44.1-44.7s19.8-44.7,44.1-44.7,44.1,20,44.1,44.7S930.14,153,905.84,153Zm0-78.8c-18.6,0-33.6,15.4-33.6,34.2a33.61,33.61,0,0,0,67.2,1.2v-1.2C939.44,89.5,924.44,74.2,905.84,74.2Z" transform="translate(0 0)"/><path class="cls-7" d="M1009.44,0a9.69,9.69,0,0,1,9.8,9.5,9.5,9.5,0,0,1-9.5,9.5h-.3a9.69,9.69,0,0,1-9.8-9.5A9.82,9.82,0,0,1,1009.44,0Zm0,184.3a8.94,8.94,0,0,1-8.9-9V42a9.08,9.08,0,0,1,8.9-8.7,8.8,8.8,0,0,1,9,8.5V175.3a8.84,8.84,0,0,1-8.68,9h-.32Z" transform="translate(0 0)"/><path class="cls-8" d="M1180.34,42V175.4a8.91,8.91,0,1,1-17.78,1.19c0-.2,0-.39,0-.59V159.8c-12.9,15.4-31.9,24.6-53.7,24.6-40.5,0-71.3-32.4-71.3-75.5s30.8-75.5,71.3-75.5c21.8,0,40.8,9.2,53.7,24.3V42a8.91,8.91,0,0,1,17.8,0Zm-17.9,66.8c0-33-22.9-57.9-53.7-57.9-30.5,0-53.4,24.9-53.4,57.9,0,32.7,22.9,57.6,53.4,57.6C1139.54,166.4,1162.44,141.5,1162.44,108.8Z" transform="translate(0 0)"/><path class="cls-9" d="M432.54,326.66c-14.1,0-22.5-7.8-25.6-15a1.7,1.7,0,0,1,.58-2.33l.12-.07c.1,0,.1-.1.2-.1a1.58,1.58,0,0,1,2.1.6c0,.1.1.2.1.3,2.8,6.2,10.1,12.8,22.5,12.8,15.7,0,24.2-11,24.2-21.5,0-15.7-11.8-18.7-24.6-22.1-12.5-3.4-25.4-6.8-25.4-23.2,0-11.4,9.1-23.5,25.8-23.5,12.9,0,20.7,7.1,23.7,13.9a2.1,2.1,0,0,1-.9,2.5,2,2,0,0,1-2.4-.9c-2.4-5.7-9.1-11.8-20.4-11.8-14.5,0-22.3,10.2-22.3,19.8,0,13.5,10.6,16.4,22.8,19.6,12.9,3.4,27.2,7.1,27.2,25.7C460.24,313.66,450.44,326.66,432.54,326.66Z" transform="translate(0 0)"/><path class="cls-10" d="M516.44,319.5a19.26,19.26,0,0,1-14.6,7.1c-10.6,0-19.3-9.1-19.3-20.3v-70h-9.2a1.83,1.83,0,0,1-1.8-1.6v-.2a1.81,1.81,0,0,1,1.6-2h9.3V209.2a2,2,0,0,1,1.7-2,1.88,1.88,0,0,1,1.8,1.9v23.4h24.4a1.74,1.74,0,0,1,1.71,1.77s0,.09,0,.13v.1a1.68,1.68,0,0,1-1.55,1.8H485.84v70c0,9.1,7.1,16.6,15.8,16.6a15.7,15.7,0,0,0,12-5.7,1.65,1.65,0,0,1,2.28-.48l.12.08a.09.09,0,0,1,.1.1,1.72,1.72,0,0,1,.47,2.39l-.17.21Z" transform="translate(0 0)"/><path class="cls-11" d="M602.74,234.6v90.3a1.7,1.7,0,1,1-3.4,0h0V304.4c-5.8,13.4-18.3,22.3-32.9,22.3-20,0-34.5-16.6-34.5-39.5V234.66a1.76,1.76,0,0,1,3.5-.3v52.9c0,20.8,13.1,35.8,31,35.8,18.5,0,32.9-15.7,32.9-35.8v-52.5a1.76,1.76,0,0,1,3.48-.52,1.64,1.64,0,0,1,0,.22c-.1-.2-.1,0-.1.1Z" transform="translate(0 0)"/><path class="cls-12" d="M703.64,203.1V324.9a1.76,1.76,0,0,1-1.65,1.76,2,2,0,0,1-1.8-1.8v-25.8c-6.4,16.6-20.9,27.6-38.7,27.6-24,0-42.2-20.1-42.2-47,0-26.7,18.1-47,42.2-47,17.8,0,32.2,11,38.7,27.6v-57.2a2,2,0,0,1,1.8-1.8A1.77,1.77,0,0,1,703.64,203.1Zm-3.5,76.5c0-24.6-16.5-43.3-38.7-43.3-22,0-38.5,18.7-38.5,43.3,0,24.8,16.5,43.3,38.5,43.3S700.14,304.4,700.14,279.6Z" transform="translate(0 0)"/><path class="cls-13" d="M728,216.66a3.37,3.37,0,0,1-3.34,3.4h-.16a3.41,3.41,0,0,1-.4-6.8h.4a3.37,3.37,0,0,1,3.5,3.24v.16Zm-1.8,17.9v90.3a1.77,1.77,0,0,1-1.7,1.8,1.84,1.84,0,0,1-1.7-1.8v-90.3a2,2,0,0,1,1.7-2,1.74,1.74,0,0,1,1.71,1.77s0,.09,0,.13Z" transform="translate(0 0)"/><path class="cls-14" d="M790.34,326.66c-24.7,0-45-21-45-47,0-25.8,20.2-47,45-47s44.8,21.2,44.8,47S815.14,326.66,790.34,326.66Zm0-90.3c-22.8,0-41.3,19.4-41.3,43.3s18.5,43.3,41.3,43.3,41.3-19.4,41.3-43.3S813,236.4,790.34,236.4Z" transform="translate(0 0)"/><path class="cls-15" d="M877.44,326.66c-14.1,0-22.5-7.8-25.6-15a1.7,1.7,0,0,1,.58-2.33l.12-.07c.1,0,.1-.1.2-.1a1.73,1.73,0,0,1,2.2.6c0,.1.1.2.1.3,2.8,6.2,10.1,12.8,22.5,12.8,15.7,0,24.2-11,24.2-21.5,0-15.7-11.8-18.7-24.6-22.1-12.5-3.4-25.4-6.8-25.4-23.2,0-11.4,9.1-23.5,25.8-23.5,12.9,0,20.7,7.1,23.7,13.9a2.1,2.1,0,0,1-.9,2.5,1.94,1.94,0,0,1-2.4-.9c-2.4-5.7-9.1-11.8-20.4-11.8-14.5,0-22.3,10.2-22.3,19.8,0,13.5,10.6,16.4,22.8,19.6,12.9,3.4,27.2,7.1,27.2,25.7C905.14,313.66,895.44,326.66,877.44,326.66Z" transform="translate(0 0)"/><path class="cls-16" d="M133.15,26.7H348.54A3.46,3.46,0,0,1,352,30.16v1.38A67.14,67.14,0,0,1,284.86,98.7H69.58A3.58,3.58,0,0,1,66,95.12V93.85A67.14,67.14,0,0,1,133.15,26.7Z" transform="translate(0 0)"/><path class="cls-17" d="M103.15,138.7H264.54a3.46,3.46,0,0,1,3.46,3.46v1.38a67.14,67.14,0,0,1-67.15,67.15H39.58A3.59,3.59,0,0,1,36,207.12v-1.27a67.14,67.14,0,0,1,67.15-67.15Z" transform="translate(0 0)"/><path class="cls-18" d="M67.15,254.7H194.54a3.46,3.46,0,0,1,3.46,3.46h0v1.38a67.14,67.14,0,0,1-67.15,67.15H3.58A3.59,3.59,0,0,1,0,323.12v-1.27A67.14,67.14,0,0,1,67.15,254.7Z" transform="translate(0 0)"/><path class="cls-19" d="M265.93,140.66H140.53L67.59,98a.71.71,0,0,1-.49-.88.72.72,0,0,1,.89-.49H193.83l72.53,42.43a.84.84,0,0,1,.31,1.15A.83.83,0,0,1,265.93,140.66Z" transform="translate(0 0)"/><path class="cls-20" d="M255.68,254.7h42A2.32,2.32,0,0,1,300,257v20a49.68,49.68,0,0,1-49.68,49.68h-42a2.32,2.32,0,0,1-2.32-2.32h0v-20A49.68,49.68,0,0,1,255.68,254.7Z" transform="translate(0 0)"/></svg>