<svg id="Layer_1" data-name="Layer 1" xmlns="http://www.w3.org/2000/svg" viewBox="0 0 125 204.31"><defs><style>.cls-1{fill:#fff;}</style></defs><title>scroll-down</title><path class="cls-1" d="M64,205.5a62.07,62.07,0,0,1-62-62V58A55.9,55.9,0,0,1,57.84,2.19H70.16A55.9,55.9,0,0,1,126,58V143.5A62.07,62.07,0,0,1,64,205.5Z" transform="translate(-1.5 -1.69)"/><path d="M70.16,2.69A55.4,55.4,0,0,1,125.5,58V143.5a61.5,61.5,0,0,1-123,0V58A55.4,55.4,0,0,1,57.84,2.69H70.16m0-1H57.84A56.34,56.34,0,0,0,1.5,58V143.5A62.5,62.5,0,0,0,64,206h0a62.5,62.5,0,0,0,62.5-62.5V58A56.34,56.34,0,0,0,70.16,1.69Z" transform="translate(-1.5 -1.69)"/><rect x="57" y="38.81" width="10.88" height="32" rx="4"/><path d="M65.38,41a3.5,3.5,0,0,1,3.5,3.5v24a3.5,3.5,0,0,1-3.5,3.5H62.5A3.5,3.5,0,0,1,59,68.5v-24A3.5,3.5,0,0,1,62.5,41h2.88m0-1H62.5A4.49,4.49,0,0,0,58,44.5v24A4.49,4.49,0,0,0,62.5,73h2.88a4.49,4.49,0,0,0,4.5-4.5v-24a4.49,4.49,0,0,0-4.5-4.5Z" transform="translate(-1.5 -1.69)"/></svg>