<svg xmlns="http://www.w3.org/2000/svg" viewBox="0 0 759.67 314.11"><defs><style>.cls-1,.cls-2,.cls-3{fill:#c3073f;}.cls-2{opacity:0.54;}.cls-2,.cls-3{isolation:isolate;}.cls-3{opacity:0.33;}</style></defs><title>Asset 5</title><g id="Layer_2" data-name="Layer 2"><g id="Layer_1-2" data-name="Layer 1"><path class="cls-1" d="M68.86,178C29.43,178,0,146.64,0,105.05,0,85.34,6.48,67.24,18.36,53.74c12.42-14,30-21.6,49.15-21.6,38.62,0,66.44,30.51,66.44,72.91a8.71,8.71,0,0,1-8.65,8.64H17.55c3.78,27.28,24.58,47,51.31,47,18.09,0,34-8.64,43.21-24.3a8.73,8.73,0,0,1,14.85,9.18C114.23,166.08,93.17,178,68.86,178ZM17.55,96.41h98.57C112.88,68.32,94,49.15,67.51,49.15S21.06,68.59,17.55,96.41Z"/><path class="cls-1" d="M269.52,40.51V169.33a8.65,8.65,0,0,1-17.29,0v-9.72A58.85,58.85,0,0,1,209.3,178a55.37,55.37,0,0,1-42.13-18.64c-10-11.34-15.66-27-15.66-43.75V40.51a8.64,8.64,0,1,1,17.28,0h0v75.07c0,26.2,17,45.1,40.51,45.1,24,0,42.94-19.71,42.94-45.1V40.51a8.65,8.65,0,0,1,17.29,0Z"/><path class="cls-1" d="M405.62,94.24v75.08a8.51,8.51,0,0,1-17,.83c0-.28,0-.55,0-.83V94.24c0-25.93-17-45.1-40.51-45.1-24.3,0-43.21,20-43.21,45.1v75.08a8.51,8.51,0,0,1-17,.83c0-.28,0-.55,0-.83V40.51a8.51,8.51,0,0,1,17,0v9.73a59.75,59.75,0,0,1,43.21-18.09c16.48,0,31.6,6.48,42.13,18.63C400.22,62.11,405.62,77.51,405.62,94.24Z"/><path class="cls-1" d="M494.74,178a72.92,72.92,0,1,1,72.92-72.92A72.92,72.92,0,0,1,494.74,178Zm0-128.82a55.77,55.77,0,1,0,55.63,55.91h0A55.79,55.79,0,0,0,494.74,49.15Z"/><path class="cls-1" d="M594.66,0a9.34,9.34,0,0,1,9.46,9.18A9.17,9.17,0,0,1,595,18.37h-.3a9.34,9.34,0,0,1-9.45-9.18A9.52,9.52,0,0,1,594.66,0Zm0,178a8.69,8.69,0,0,1-8.64-8.64V40.51a8.65,8.65,0,0,1,8.64-8.37,8.49,8.49,0,0,1,8.65,8.31V169.33a8.53,8.53,0,0,1-8.42,8.64h-.23Z"/><path class="cls-1" d="M759.67,40.51V169.33a8.64,8.64,0,1,1-17.28,0V154.24C730,169.1,711.6,178,690.54,178c-39.16,0-68.87-31.33-68.87-72.92s29.71-72.91,68.87-72.91c21.06,0,39.42,8.91,51.85,23.49V40.51a8.64,8.64,0,1,1,17.28,0Zm-17.28,64.54c0-31.86-22.15-55.9-51.85-55.9-29.44,0-51.58,24-51.58,55.9,0,31.6,22.14,55.63,51.58,55.63C720.24,160.68,742.39,136.65,742.39,105.05Z"/><path class="cls-1" d="M136.35,314c-13.63,0-21.71-7.57-24.74-14.45a1.73,1.73,0,0,1,.68-2.34l.16-.07a1.53,1.53,0,0,1,2.08.6,2,2,0,0,1,.11.26c2.69,6,9.76,12.38,21.71,12.38,15.14,0,23.38-10.66,23.38-20.81,0-15.14-11.44-18.06-23.72-21.33-12.12-3.27-24.57-6.54-24.57-22.36,0-11,8.75-22.71,24.91-22.71,12.45,0,20,6.88,22.88,13.42a2,2,0,0,1-.84,2.41,1.94,1.94,0,0,1-2.36-.86c-2.35-5.51-8.75-11.36-19.68-11.36-14,0-21.54,9.81-21.54,19.1,0,13.07,10.26,15.82,22,18.92,12.45,3.27,26.25,6.88,26.25,24.77C163.1,301.45,153.68,314,136.35,314Z"/><path class="cls-1" d="M217.45,307.12A18.47,18.47,0,0,1,203.31,314c-10.26,0-18.68-8.78-18.68-19.61V226.77h-8.91a1.62,1.62,0,0,1-1.69-1.53v-.19a1.77,1.77,0,0,1,1.63-1.89h9V200.65a1.88,1.88,0,0,1,1.69-1.9,1.75,1.75,0,0,1,1.69,1.81s0,.06,0,.09v22.53h23.56A1.73,1.73,0,0,1,213.2,225v0a1.61,1.61,0,0,1-1.49,1.71H188V294.4c0,8.77,6.9,16,15.31,16a15.07,15.07,0,0,0,11.61-5.5,1.65,1.65,0,0,1,2.3-.4l.06.05a1.75,1.75,0,0,1,.25,2.47A.39.39,0,0,1,217.45,307.12Z"/><path class="cls-1" d="M300.74,225.07v87.22a1.69,1.69,0,0,1-3.37.26,1.13,1.13,0,0,1,0-.26V292.5C291.82,305.4,279.7,314,265.57,314c-19.35,0-33.32-16-33.32-38.19V225.07a1.7,1.7,0,1,1,3.37,0v50.75c0,20.12,12.62,34.57,30,34.57,17.84,0,31.8-15.13,31.8-34.57V225.07a1.7,1.7,0,1,1,3.37,0Z"/><path class="cls-1" d="M398.2,194.62V312.29a1.7,1.7,0,0,1-1.68,1.72h0a1.84,1.84,0,0,1-1.68-1.72v-25c-6.23,16-20.19,26.67-37.36,26.67-23.22,0-40.72-19.44-40.72-45.42,0-25.8,17.5-45.41,40.72-45.41,17.17,0,31.13,10.67,37.36,26.66V194.62a1.82,1.82,0,0,1,1.68-1.72,1.7,1.7,0,0,1,1.68,1.72Zm-3.36,74c0-23.74-16-41.8-37.36-41.8-21.2,0-37.19,18.06-37.19,41.8,0,23.91,16,41.8,37.19,41.8s37.32-17.92,37.32-41.83Z"/><path class="cls-1" d="M421.72,207.87a3.27,3.27,0,0,1-3.27,3.27h-.1a3.27,3.27,0,1,1,0-6.54h0a3.27,3.27,0,0,1,3.37,3.17Zm-1.86,17.2v87.22a1.7,1.7,0,0,1-1.68,1.72h0a1.84,1.84,0,0,1-1.68-1.72V225.07a1.88,1.88,0,0,1,1.68-1.89,1.75,1.75,0,0,1,1.69,1.81.22.22,0,0,0,0,.08Z"/><path class="cls-1" d="M482,314c-23.89,0-43.41-20.3-43.41-45.42,0-24.94,19.52-45.41,43.41-45.41s43.25,20.47,43.25,45.41C525.2,293.71,505.85,314,482,314Zm0-87.22c-22,0-39.88,18.75-39.88,41.8s17.84,41.8,39.88,41.8c21.88,0,39.88-18.75,39.88-41.8s-18-41.82-39.88-41.82Z"/><path class="cls-1" d="M566.08,314c-13.63,0-21.7-7.57-24.73-14.45a1.73,1.73,0,0,1,.68-2.34l.16-.07a1.53,1.53,0,0,1,2.08.6,2,2,0,0,1,.11.26c2.69,6,9.76,12.38,21.7,12.38,15.15,0,23.39-10.66,23.39-20.81,0-15.14-11.44-18.06-23.72-21.33-12.12-3.27-24.57-6.54-24.57-22.36,0-11,8.75-22.71,24.9-22.71,12.45,0,20,6.88,22.89,13.42a2,2,0,0,1-.84,2.41,1.92,1.92,0,0,1-2.36-.86c-2.36-5.51-8.75-11.36-19.69-11.36-14,0-21.54,9.81-21.54,19.1,0,13.07,10.27,15.82,22.05,18.92,12.45,3.27,26.25,6.88,26.25,24.77C592.84,301.45,583.41,314,566.08,314Z"/><path class="cls-2" d="M494.6,48.88a56,56,0,1,0,56,56A56,56,0,0,0,494.6,48.88Zm.82,100A43.68,43.68,0,1,1,539.1,105.2,43.68,43.68,0,0,1,495.42,148.88Z"/><path class="cls-3" d="M495.42,61.54a43.66,43.66,0,1,0,43.66,43.66A43.66,43.66,0,0,0,495.42,61.54Zm.64,77.9a34,34,0,1,1,34-34A34,34,0,0,1,496.06,139.44Z"/></g></g></svg>